<svg width="287" height="60" viewBox="0 0 287 60" fill="none" xmlns="http://www.w3.org/2000/svg">
<g clip-path="url(#clip0_1775_9984)">
<path fill-rule="evenodd" clip-rule="evenodd" d="M21.7452 27.095L21.83 27.2467L29.1224 40.2887H14.405L21.7452 27.095ZM21.7227 27.0549H12.4453L0.179688 48.9593H24.2269L29.1417 40.323L33.9707 48.9593H43.3241L21.7519 10.7205L17.1611 18.8957L21.7227 27.0549ZM45.9474 49.0393C46.3262 49.0346 46.6952 48.9153 47.008 48.6964C47.3207 48.4775 47.5632 48.1689 47.705 47.8093C47.8468 47.4497 47.8816 47.0552 47.8048 46.6755C47.7281 46.2957 47.5433 45.9476 47.2738 45.6751C47.0043 45.4026 46.662 45.2177 46.2901 45.1438C45.9182 45.0698 45.5333 45.1101 45.1837 45.2596C44.834 45.4091 44.5355 45.661 44.3255 45.9838C44.1154 46.3065 44.0033 46.6857 44.0033 47.0734C44.0022 47.334 44.052 47.5921 44.1495 47.8326C44.2471 48.0732 44.3907 48.2914 44.5718 48.4745C44.7528 48.6576 44.9678 48.8018 45.204 48.8988C45.4401 48.9958 45.6929 49.0436 45.9474 49.0393ZM44.3859 47.0734C44.3935 46.7591 44.4916 46.4542 44.6678 46.1966C44.844 45.9391 45.0904 45.7405 45.3763 45.6256C45.6623 45.5107 45.9749 45.4847 46.2752 45.5508C46.5755 45.617 46.8501 45.7723 47.0646 45.9973C47.279 46.2224 47.424 46.5071 47.4811 46.816C47.5383 47.1249 47.5051 47.4442 47.3859 47.7339C47.2666 48.0236 47.0666 48.271 46.8107 48.4448C46.5548 48.6187 46.2545 48.7116 45.9474 48.7117C45.739 48.7118 45.5327 48.6692 45.3407 48.5863C45.1486 48.5035 44.9747 48.3822 44.8292 48.2296C44.6837 48.0768 44.5694 47.8959 44.4933 47.6973C44.4172 47.4988 44.3807 47.2866 44.3859 47.0734ZM45.5414 47.2253H45.9318L46.5095 48.2082H46.8843L46.2597 47.2093C46.3379 47.2094 46.4154 47.1931 46.4872 47.1614C46.559 47.1296 46.6237 47.083 46.6772 47.0245C46.7306 46.9661 46.7718 46.897 46.798 46.8215C46.8243 46.746 46.835 46.6659 46.8296 46.586C46.8296 46.1464 46.572 45.9466 46.0489 45.9466H45.2135V48.2082H45.5414V47.2253ZM45.5414 46.9376V46.2343H46.002C46.2363 46.2343 46.4783 46.2903 46.4783 46.57C46.4783 46.8497 46.2285 46.9376 45.9474 46.9376H45.5414Z" fill="#A6192E"/>
<path fill-rule="evenodd" clip-rule="evenodd" d="M87.2957 13.4536V21.5329H89.3725V13.4536H87.2957ZM89.3725 10.5208H87.2957V12.5026H89.3725V10.5208ZM72.2824 14.8642C72.4145 15.2083 72.4729 15.5775 72.4537 15.9467L72.4693 15.9387V21.5327H70.3925V16.634C70.3925 15.4273 69.8772 15.0357 69.2682 15.0357C68.2298 15.0357 67.855 15.731 67.855 16.6899V21.5327H65.7782V16.65C65.7782 15.9627 65.7782 15.0117 64.5368 15.0117C63.5531 15.0117 63.2408 15.731 63.2408 16.61V21.5327H61.1874V13.4534H63.1705V14.6361C63.3649 14.2007 63.6822 13.8347 64.0816 13.5855C64.4809 13.3363 64.9441 13.2151 65.4113 13.2376C65.8615 13.204 66.3113 13.3094 66.7024 13.5402C67.0936 13.771 67.408 14.1166 67.6052 14.5323C67.8154 14.1467 68.1206 13.8242 68.4905 13.5971C68.8603 13.3699 69.2819 13.246 69.7132 13.2376C70.0731 13.2051 70.4356 13.252 70.7762 13.3753C71.1168 13.4986 71.4275 13.6953 71.6874 13.9522C71.9473 14.2091 72.1501 14.5201 72.2824 14.8642ZM83.9072 21.5328H81.8617V13.4535H83.8448V14.9C84.2742 14.1008 84.7505 13.3017 86.0075 13.3017C86.1425 13.2934 86.2784 13.2934 86.4135 13.3017V15.3714C86.2159 15.3553 86.0176 15.3553 85.8201 15.3714C85.5624 15.332 85.3001 15.3542 85.0526 15.4366C84.8051 15.5189 84.5795 15.6589 84.3944 15.8457C84.2086 16.0325 84.0681 16.2609 83.9837 16.5128C83.8986 16.7648 83.8729 17.0333 83.9072 17.2974V21.5328ZM95.2328 19.5726C95.4936 19.3105 95.6482 18.9575 95.6654 18.584L97.7734 18.56C97.6992 19.4665 97.2792 20.3065 96.6039 20.8975C95.9285 21.4885 95.0525 21.7829 94.1663 21.7166C91.1995 21.7166 90.5202 19.4231 90.5202 17.7209C90.5202 15.1077 91.6289 13.2378 94.2991 13.2378C95.5483 13.2378 97.5938 13.8211 97.789 16.3384H95.681C95.674 16.16 95.6326 15.9847 95.5592 15.8226C95.4858 15.6605 95.382 15.5148 95.2539 15.3938C95.1259 15.2728 94.9752 15.1789 94.8112 15.1175C94.6473 15.0561 94.4732 15.0283 94.2991 15.0358C92.9952 15.0358 92.6517 16.4903 92.6517 17.3693C92.6517 18.2483 92.6985 19.9985 94.26 19.9985C94.6254 19.9869 94.9729 19.8348 95.2328 19.5726ZM105.237 15.5792C105.237 13.5894 103.207 13.2378 102.114 13.2378C100.498 13.2378 98.8196 13.5894 98.5776 16.0667H100.584C100.585 15.9035 100.619 15.7424 100.686 15.5941C100.753 15.4459 100.85 15.3139 100.97 15.2072C101.091 15.1004 101.232 15.0213 101.385 14.9752C101.538 14.9291 101.699 14.9171 101.857 14.9399C102.395 14.9399 103.223 14.9879 103.223 15.8829C103.223 16.3384 102.825 16.4743 102.497 16.5222L100.631 16.8099C100.311 16.8191 99.9954 16.8935 99.7034 17.0288C99.4114 17.1641 99.1491 17.3575 98.9313 17.5978C98.7127 17.8381 98.544 18.1204 98.4339 18.4283C98.3231 18.7362 98.2739 19.0636 98.2887 19.3911C98.2747 19.7153 98.3293 20.0386 98.448 20.3393C98.5674 20.64 98.7478 20.9109 98.9781 21.1338C99.2084 21.3567 99.4833 21.5262 99.7831 21.6309C100.083 21.7356 100.401 21.773 100.717 21.7406C101.201 21.7553 101.682 21.658 102.124 21.456C102.566 21.254 102.958 20.9525 103.27 20.5738C103.288 20.901 103.351 21.2239 103.457 21.5328H105.698V21.2132C105.448 21.1173 105.237 20.9095 105.237 19.9505V15.5792ZM103.207 18.6319C103.168 19.0945 102.951 19.5221 102.604 19.8215C102.257 20.121 101.809 20.2679 101.357 20.2302C101.23 20.2394 101.102 20.2209 100.982 20.1758C100.862 20.1308 100.753 20.0603 100.661 19.969C100.569 19.8776 100.498 19.7676 100.451 19.646C100.405 19.5243 100.383 19.3939 100.389 19.2633C100.389 18.3842 101.029 18.1844 101.802 18.0486C102.299 18.023 102.782 17.872 103.207 17.6091V18.6319ZM113.243 14.2754C113.617 14.7503 113.83 15.3372 113.849 15.947L113.88 15.939V21.533H111.804V16.6343C111.804 16.0349 111.772 15.036 110.453 15.036C110.221 15.0318 109.991 15.0787 109.778 15.1735C109.566 15.2683 109.376 15.4088 109.222 15.5854C109.066 15.762 108.951 15.9706 108.882 16.1971C108.812 16.4236 108.792 16.6626 108.821 16.898V21.533H106.744V13.4537H108.735V14.6364C109.033 14.1077 109.49 13.6926 110.039 13.4542C110.588 13.2158 111.198 13.1669 111.775 13.3151C112.354 13.4633 112.869 13.8004 113.243 14.2754ZM53.2939 19.2795H57.1586L57.8457 21.5331H60.2582L56.5106 10.6327H53.9419L50.1709 21.5331H52.5131L53.2939 19.2795ZM55.2145 13.0861L55.2261 13.1236L53.8717 17.4015H56.5418L55.2261 13.1236L55.238 13.0861H55.2145ZM78.0969 19.8255C78.3342 19.6659 78.5154 19.4324 78.6137 19.1594H80.7452C80.5414 19.931 80.0854 20.608 79.453 21.0775C78.8206 21.5472 78.0509 21.7812 77.2708 21.7406C75.0769 21.7406 73.3671 20.6458 73.3671 17.3214C73.3671 16.3544 73.695 13.2378 77.1459 13.2378C78.7074 13.2378 80.8545 13.9969 80.8545 17.689V18.0726H75.4439L75.4464 18.0974C75.5098 18.7163 75.6459 20.0464 77.2943 20.0464C77.578 20.0626 77.8593 19.9852 78.0969 19.8255ZM77.1069 14.9879C76.1231 14.9879 75.6078 15.6272 75.4907 16.69H78.7074C78.7215 16.4682 78.6902 16.2457 78.6161 16.0369C78.5411 15.828 78.4248 15.6374 78.2741 15.4772C78.1234 15.317 77.942 15.1908 77.741 15.1065C77.54 15.0222 77.324 14.9818 77.1069 14.9879ZM132.626 48.9034C133.003 48.8955 133.368 48.7742 133.677 48.5547C133.986 48.3352 134.225 48.0272 134.365 47.6693C134.504 47.3114 134.537 46.9194 134.459 46.5425C134.381 46.1656 134.197 45.8205 133.929 45.5504C133.661 45.2802 133.32 45.097 132.951 45.0237C132.582 44.9504 132.199 44.9904 131.852 45.1385C131.504 45.2865 131.208 45.5362 130.998 45.8562C130.788 46.1762 130.676 46.5523 130.674 46.9375C130.673 47.1987 130.724 47.4574 130.821 47.6985C130.92 47.9397 131.064 48.1583 131.245 48.3414C131.427 48.5247 131.643 48.6688 131.881 48.7652C132.117 48.8618 132.371 48.9087 132.626 48.9034ZM131.065 46.9375C131.065 46.6214 131.156 46.3123 131.328 46.0495C131.5 45.7867 131.743 45.5818 132.029 45.4608C132.314 45.3399 132.628 45.3082 132.931 45.3699C133.234 45.4316 133.512 45.5838 133.73 45.8074C133.949 46.0309 134.097 46.3156 134.157 46.6257C134.218 46.9357 134.187 47.2571 134.069 47.5491C133.95 47.8412 133.751 48.0908 133.494 48.2664C133.237 48.442 132.935 48.5358 132.626 48.5358C132.212 48.5358 131.815 48.3674 131.522 48.0676C131.229 47.7679 131.065 47.3614 131.065 46.9375ZM132.22 47.0973H132.603L133.188 48.0723H133.563L132.931 47.0813C133.009 47.0815 133.086 47.0652 133.158 47.0334C133.23 47.0017 133.295 46.9551 133.348 46.8966C133.402 46.8381 133.443 46.769 133.469 46.6935C133.495 46.6181 133.506 46.5379 133.501 46.458C133.501 46.0105 133.243 45.8107 132.72 45.8107H131.877V48.0723H132.212V47.0973H132.22ZM132.22 46.8016V46.1064H132.673C132.907 46.1064 133.157 46.1543 133.157 46.434C133.157 46.7137 132.9 46.8016 132.618 46.8016H132.22ZM129.019 42.2139C129.15 42.5545 129.209 42.9199 129.191 43.2856H129.199V48.8796H127.122V43.9728C127.122 43.3735 127.091 42.3746 125.771 42.3746C125.539 42.3703 125.308 42.4173 125.095 42.5126C124.882 42.6078 124.691 42.749 124.536 42.9265C124.381 43.1041 124.266 43.3137 124.197 43.5412C124.129 43.7687 124.109 44.0086 124.139 44.2446V48.8716H122.149V40.7923H124.139V41.975C124.363 41.5411 124.701 41.1805 125.115 40.9345C125.529 40.6885 126.003 40.5671 126.482 40.5845C126.839 40.5568 127.197 40.6072 127.533 40.7321C127.869 40.8571 128.175 41.0538 128.432 41.3093C128.688 41.5648 128.888 41.8731 129.019 42.2139ZM53.2705 46.626H57.1586L57.8457 48.8716H60.2582L56.5106 37.9713H53.9419L50.1475 48.8716H52.4897L53.2705 46.626ZM55.2145 40.4726L56.5418 44.78H53.8717L55.2145 40.4726ZM64.1151 40.5845C65.661 40.5845 67.5035 40.9761 67.6597 43.2536L65.5985 43.2137C65.5126 42.6942 65.3408 42.1508 64.2087 42.1508C63.0767 42.1508 62.9283 42.5983 62.9283 42.9499C62.9283 43.4523 63.7006 43.6124 64.6347 43.8061C66.0634 44.1022 67.8705 44.4768 67.8705 46.2744C67.8705 48.6238 65.6453 49.0554 64.4117 49.0554C62.616 49.0554 60.6797 48.4161 60.6173 46.2584H62.7487C62.7487 46.9457 63.1704 47.4411 64.4742 47.4411C65.5438 47.4411 65.7937 46.9457 65.7937 46.642C65.7937 46.1008 65.0076 45.9395 64.0655 45.7461C62.6565 45.4569 60.8984 45.0959 60.8984 43.2856C60.8984 42.0709 61.6791 40.5845 64.1151 40.5845ZM75.5298 43.2536C75.3658 40.9761 73.531 40.5845 71.9851 40.5845C69.5258 40.5845 68.7997 42.1029 68.7997 43.2856C68.7997 45.0959 70.5578 45.4569 71.9668 45.7461C72.9089 45.9395 73.695 46.1008 73.695 46.642C73.695 46.9457 73.4373 47.4411 72.3755 47.4411C71.0638 47.4411 70.65 46.9457 70.65 46.2584H68.5186C68.5732 48.4161 70.5173 49.0554 72.3131 49.0554C73.5466 49.0554 75.7718 48.6238 75.7718 46.2744C75.7718 44.4768 73.9647 44.1022 72.536 43.8061C71.602 43.6124 70.8296 43.4523 70.8296 42.9499C70.8296 42.5983 70.978 42.1508 72.1022 42.1508C73.2265 42.1508 73.4139 42.6942 73.4998 43.2137L75.5298 43.2536ZM84.2086 43.2548C84.4116 43.756 84.5162 44.2933 84.5162 44.8358C84.5162 45.3785 84.4116 45.9157 84.2086 46.4169C84.0064 46.9182 83.7089 47.3737 83.3342 47.7573C82.9594 48.141 82.5144 48.4453 82.0241 48.6529C81.5345 48.8606 81.0099 48.9674 80.4797 48.9674C79.9496 48.9674 79.4249 48.8606 78.9346 48.6529C78.4451 48.4453 78.0002 48.141 77.6255 47.7573C77.2506 47.3737 76.9533 46.9182 76.7505 46.4169C76.5475 45.9157 76.4432 45.3785 76.4432 44.8358C76.4432 44.2933 76.5475 43.756 76.7505 43.2548C76.9533 42.7535 77.2506 42.2981 77.6255 41.9144C78.0002 41.5308 78.4451 41.2264 78.9346 41.0188C79.4249 40.8112 79.9496 40.7043 80.4797 40.7043C81.0099 40.7043 81.5345 40.8112 82.0241 41.0188C82.5144 41.2264 82.9594 41.5308 83.3342 41.9144C83.7089 42.2981 84.0064 42.7535 84.2086 43.2548ZM80.4797 47.2892C82.0803 47.2892 82.377 45.8667 82.377 44.8358C82.377 43.797 82.0803 42.3745 80.4797 42.3745C78.8792 42.3745 78.5825 43.8049 78.5825 44.8358C78.5825 45.8667 78.8792 47.2892 80.4797 47.2892ZM90.2704 45.9226C90.2548 46.2967 90.101 46.6508 89.8402 46.9133C89.5794 47.1758 89.2304 47.3272 88.865 47.3371C87.3035 47.3371 87.3035 45.5949 87.3035 44.7079C87.3035 43.8209 87.647 42.3744 88.9509 42.3744C89.2929 42.3739 89.6224 42.5079 89.8706 42.7489C90.1197 42.9898 90.268 43.3192 90.286 43.669H92.394C92.1988 41.1517 90.1533 40.5763 88.9119 40.5763C86.2417 40.5763 85.1252 42.4383 85.1252 45.0515C85.1252 46.7537 85.8123 49.0472 88.7791 49.0472C89.6708 49.1109 90.5499 48.8102 91.2245 48.2108C91.8998 47.6116 92.3144 46.7627 92.3784 45.8507L90.2704 45.9226ZM93.5183 48.8717V40.7923H95.5951V48.8717H93.5183ZM93.5183 37.8675H95.5951V39.8414H93.5183V37.8675ZM103.59 42.918C103.59 40.9281 101.56 40.5845 100.467 40.5845C98.843 40.5845 97.1722 40.9281 96.9302 43.4055H98.9367C98.9375 43.2424 98.9719 43.0812 99.039 42.9329C99.1054 42.7847 99.2022 42.6527 99.3232 42.546C99.4434 42.4392 99.5848 42.3601 99.7378 42.314C99.8908 42.2679 100.052 42.2559 100.209 42.2787C100.748 42.2787 101.576 42.3266 101.576 43.2217C101.576 43.6772 101.178 43.813 100.85 43.861L98.9836 44.1487C98.3441 44.1797 97.743 44.4688 97.3112 44.9526C96.8795 45.4363 96.653 46.0754 96.6804 46.7299C96.6616 47.0554 96.7108 47.3813 96.8256 47.6853C96.9411 47.9894 97.1184 48.2646 97.3463 48.4921C97.5751 48.7195 97.8484 48.894 98.1482 49.0037C98.448 49.1133 98.7681 49.1555 99.0851 49.1273C99.5699 49.1411 100.051 49.0425 100.493 48.8391C100.935 48.6357 101.327 48.3326 101.638 47.9526C101.656 48.2797 101.719 48.6026 101.826 48.9115H104.066V48.5919C103.816 48.504 103.606 48.2882 103.606 47.3292V42.918H103.59ZM101.56 45.9707C101.52 46.4332 101.303 46.8609 100.957 47.1603C100.61 47.4597 100.162 47.6067 99.7097 47.569C99.5816 47.5783 99.4528 47.5596 99.3326 47.514C99.2123 47.4685 99.1023 47.3973 99.0109 47.3051C98.9196 47.2129 98.8477 47.1018 98.8017 46.9792C98.7548 46.8566 98.7345 46.7253 98.7416 46.594C98.7416 45.715 99.3818 45.5152 100.155 45.3793C100.651 45.3538 101.135 45.2028 101.56 44.9398V45.9707ZM105.323 38.6105H107.4H107.431V40.7921H108.72V42.3105H107.431V46.7057C107.431 47.1772 107.439 47.361 108.29 47.361C108.433 47.3684 108.577 47.3684 108.72 47.361V48.9593H107.744H107.439C105.643 48.9593 105.323 48.2641 105.323 47.2172V42.3105H104.254V40.7921H105.323V38.6105ZM109.688 40.7923V48.8717H111.765V40.7923H109.688ZM111.765 37.8675H109.688V39.8414H111.765V37.8675ZM116.988 40.5846C119.104 40.5846 121.016 41.9191 121.016 44.836C121.041 45.3933 120.954 45.9498 120.762 46.472C120.57 46.9942 120.277 47.4711 119.9 47.8742C119.524 48.2772 119.071 48.598 118.57 48.8171C118.068 49.0362 117.529 49.1492 116.984 49.1492C116.439 49.1492 115.899 49.0362 115.398 48.8171C114.897 48.598 114.444 48.2772 114.068 47.8742C113.691 47.4711 113.398 46.9942 113.206 46.472C113.014 45.9498 112.927 45.3933 112.951 44.836C112.904 44.2759 112.975 43.712 113.161 43.1827C113.346 42.6532 113.639 42.1706 114.022 41.7675C114.404 41.3644 114.867 41.0501 115.379 40.846C115.891 40.642 116.44 40.5528 116.988 40.5846ZM116.988 47.2894C118.588 47.2894 118.885 45.8669 118.885 44.836C118.885 43.7971 118.596 42.3746 116.988 42.3746C115.379 42.3746 115.083 43.8051 115.083 44.836C115.083 45.8669 115.387 47.2894 116.988 47.2894ZM51.2951 35.198H55.8859C59.4071 35.198 60.305 31.8337 60.305 29.4922C60.305 27.4304 59.5242 24.2978 55.9796 24.2978H51.2951V35.198ZM53.4578 26.1837H55.5892C56.5417 26.1837 58.0408 26.4395 58.0408 29.66C58.0408 31.4501 57.4318 33.3201 55.6205 33.3201H53.4578V26.1837ZM61.4996 35.1981V27.1268H63.5764V35.1981H61.4996ZM61.4996 24.194H63.5764V26.1678H61.4996V24.194ZM78.5278 31.2263C78.5278 32.1773 78.1609 33.6237 76.8258 33.6237C75.4907 33.6237 74.9832 32.5049 74.9832 31.3062C74.9832 30.1075 75.3424 28.709 76.7633 28.709C78.1843 28.709 78.5278 29.9077 78.5278 31.1864V31.2263ZM75.0691 24.2978H73.0001V35.198H75.0301V34.1831C75.2649 34.5809 75.6013 34.9057 76.003 35.1226C76.4047 35.3394 76.8565 35.4401 77.3099 35.4138C79.6521 35.4138 80.6359 33.2881 80.6359 31.0745C80.6359 28.2775 79.0744 26.911 77.3567 26.911C76.8996 26.8907 76.4457 26.9974 76.043 27.2197C75.6403 27.442 75.3038 27.7715 75.0691 28.1736V24.2978ZM89.8566 24.9373H91.9334V27.127H93.2294V28.6453H91.9334V33.0486C91.9334 33.5201 91.949 33.6959 92.8 33.6959H93.2294V35.2942H92.2457H91.9802C90.1845 35.2942 89.8566 34.5909 89.8566 33.5441V28.6453H88.7948V27.127H89.8566V24.9373ZM98.8118 32.8326C98.7103 33.1061 98.5261 33.339 98.2856 33.4972C98.0451 33.6555 97.7617 33.7307 97.4767 33.7116C95.8208 33.7116 95.6841 32.3814 95.6209 31.7625L95.6185 31.7378H101.037V31.3622C101.037 27.6701 98.8821 26.911 97.3284 26.911C93.8697 26.911 93.5417 30.0276 93.5417 30.9946C93.5417 34.319 95.2516 35.4138 97.4455 35.4138C98.2239 35.4525 98.9922 35.2176 99.623 34.7482C100.254 34.2787 100.708 33.6029 100.912 32.8326H98.8118ZM95.6888 30.3552C95.8059 29.2924 96.3212 28.6611 97.305 28.6611C97.5181 28.6607 97.7289 28.7049 97.9249 28.7912C98.1209 28.8775 98.2973 29.0038 98.4433 29.1625C98.5901 29.3213 98.7033 29.509 98.7759 29.7141C98.8485 29.9192 98.879 30.1374 98.8665 30.3552H95.6888ZM68.4562 26.9429C69.5493 26.9429 71.5792 27.2945 71.5792 29.2844H71.6026V33.6237C71.6026 34.5747 71.8134 34.7905 72.0633 34.8784V35.27H69.8225C69.7162 34.9633 69.6505 34.6435 69.6273 34.319C69.3162 34.697 68.9258 34.9982 68.485 35.2002C68.0443 35.4022 67.5647 35.4998 67.0821 35.4857C66.7647 35.5139 66.4451 35.4717 66.1452 35.3621C65.8451 35.2525 65.5717 35.0779 65.3436 34.8505C65.1154 34.623 64.9377 34.3478 64.8228 34.0438C64.7078 33.7397 64.6582 33.4138 64.6774 33.0883C64.6627 32.7651 64.7105 32.4419 64.8179 32.1375C64.9253 31.8331 65.0904 31.5534 65.3036 31.3144C65.5168 31.0754 65.774 30.8818 66.0605 30.7446C66.3468 30.6075 66.6569 30.5295 66.9728 30.5151L68.8466 30.2194C69.1745 30.1794 69.5727 30.0436 69.5727 29.5881C69.5727 28.693 68.7451 28.6451 68.2064 28.6451C68.049 28.621 67.8883 28.6319 67.7353 28.677C67.5825 28.7221 67.4408 28.8004 67.3201 28.9066C67.1993 29.0127 67.1023 29.1442 67.0356 29.2922C66.969 29.4401 66.9342 29.601 66.9337 29.7639H64.9272C65.1692 27.2945 66.84 26.9429 68.4562 26.9429ZM68.9411 33.5192C69.289 33.22 69.5076 32.7923 69.5493 32.3291V31.2982C69.1209 31.5622 68.6354 31.7132 68.1361 31.7378C67.371 31.8736 66.7307 32.0734 66.7307 32.9525C66.7239 33.083 66.7441 33.2136 66.7901 33.3356C66.836 33.4576 66.9066 33.5683 66.9973 33.6603C67.088 33.7524 67.1967 33.8238 67.3163 33.8699C67.4358 33.9159 67.5636 33.9355 67.6911 33.9274C68.144 33.9652 68.5932 33.8185 68.9411 33.5192ZM86.3822 32.8326C86.2807 33.1061 86.0965 33.339 85.856 33.4972C85.6155 33.6555 85.3321 33.7307 85.0471 33.7116C83.3912 33.7116 83.2545 32.3814 83.1913 31.7625L83.1889 31.7378H88.6074V31.3622C88.6074 27.6701 86.4525 26.911 84.8988 26.911C81.4401 26.911 81.1199 30.0276 81.1199 30.9946C81.1199 34.319 82.822 35.4138 85.0237 35.4138C85.8029 35.4539 86.5719 35.2197 87.2028 34.75C87.8329 34.2803 88.288 33.6036 88.4903 32.8326H86.3822ZM83.2592 30.3552C83.3763 29.2924 83.8994 28.6611 84.8754 28.6611C85.0916 28.6551 85.3071 28.6953 85.5078 28.7791C85.7077 28.8629 85.8896 28.9884 86.0395 29.1477C86.1902 29.3071 86.3065 29.4967 86.3814 29.7046C86.4572 29.9124 86.4892 30.134 86.4759 30.3552H83.2592ZM104.98 26.911C106.518 26.911 108.36 27.3025 108.524 29.5801L106.487 29.5321C106.393 29.0207 106.213 28.4693 105.089 28.4693C103.965 28.4693 103.816 28.9248 103.816 29.2684C103.816 29.7748 104.59 29.9352 105.526 30.129C106.951 30.4245 108.751 30.7975 108.751 32.5928C108.751 34.9503 106.526 35.3739 105.3 35.3739C103.504 35.3739 101.56 34.7345 101.498 32.5769H103.645C103.645 33.2641 104.058 33.7676 105.362 33.7676C106.432 33.7676 106.682 33.2721 106.682 32.9684C106.682 32.4273 105.896 32.2659 104.954 32.0725C103.545 31.7832 101.786 31.4223 101.786 29.612C101.786 28.4293 102.513 26.911 104.98 26.911Z" fill="black"/>
</g>
<path fill-rule="evenodd" clip-rule="evenodd" d="M284.108 27.7892C284.536 27.7839 284.952 27.6497 285.306 27.4036C285.659 27.1575 285.933 26.8105 286.093 26.4061C286.253 26.0017 286.292 25.5582 286.205 25.1312C286.119 24.7042 285.91 24.3128 285.606 24.0064C285.301 23.7 284.915 23.4921 284.495 23.409C284.075 23.3258 283.641 23.3711 283.246 23.5392C282.851 23.7073 282.514 23.9906 282.277 24.3535C282.04 24.7164 281.913 25.1427 281.913 25.5787C281.912 25.8716 281.968 26.1619 282.078 26.4323C282.188 26.7028 282.351 26.9482 282.555 27.1541C282.759 27.3599 283.002 27.5221 283.269 27.6312C283.535 27.7403 283.821 27.7939 284.108 27.7892ZM282.345 25.5787C282.354 25.2253 282.464 24.8824 282.663 24.5928C282.862 24.3033 283.141 24.0799 283.463 23.9508C283.786 23.8216 284.139 23.7924 284.478 23.8667C284.817 23.9411 285.127 24.1157 285.369 24.3687C285.612 24.6217 285.775 24.9419 285.84 25.2893C285.904 25.6366 285.867 25.9956 285.732 26.3214C285.598 26.6471 285.372 26.9252 285.083 27.1207C284.794 27.3163 284.455 27.4207 284.108 27.4208C283.873 27.4208 283.64 27.373 283.423 27.2798C283.206 27.1867 283.01 27.0503 282.846 26.8787C282.681 26.7069 282.552 26.5035 282.466 26.2802C282.38 26.057 282.339 25.8184 282.345 25.5787ZM283.65 25.7494H284.09L284.743 26.8547H285.166L284.461 25.7315C284.549 25.7316 284.636 25.7133 284.718 25.6776C284.799 25.6419 284.872 25.5895 284.932 25.5237C284.992 25.458 285.039 25.3803 285.069 25.2954C285.098 25.2106 285.11 25.1204 285.104 25.0306C285.104 24.5364 284.813 24.3117 284.223 24.3117H283.279V26.8547H283.65V25.7494ZM283.65 25.426V24.6352H284.17C284.434 24.6352 284.708 24.6981 284.708 25.0126C284.708 25.3271 284.425 25.426 284.108 25.426H283.65Z" fill="#A6192E"/>
<path d="M151.31 38.8056H158.795C164.093 38.8056 166.669 34.9311 166.669 29.7232C166.669 23.7605 163.291 20.842 158.795 20.842H151.31V38.8056ZM155.125 24.163H157.847C161.638 24.163 162.854 26.4777 162.854 30.1006C162.854 34.0757 160.739 35.4846 158.528 35.4846H155.125V24.163Z" fill="#A6192E"/>
<path d="M168.218 38.8056H171.669V25.7984H168.218V38.8056ZM171.669 20.842H168.218V23.7857H171.669V20.842Z" fill="#A6192E"/>
<path d="M181.225 33.7738C181.225 34.5537 181.128 36.7677 178.43 36.7677C177.312 36.7677 176.316 36.4407 176.316 35.1072C176.316 33.799 177.288 33.4216 178.357 33.1951C179.427 32.9939 180.642 32.9687 181.225 32.4404V33.7738ZM176.705 29.7987C176.826 28.3898 177.677 27.8363 178.989 27.8363C180.204 27.8363 181.225 28.0627 181.225 29.5974C181.225 31.0566 179.257 30.9811 177.142 31.3082C175.004 31.6101 172.865 32.3146 172.865 35.2582C172.865 37.925 174.761 39.1578 177.142 39.1578C178.673 39.1578 180.277 38.7301 181.371 37.5477C181.395 37.9754 181.493 38.4031 181.614 38.8056H185.114C184.798 38.2773 184.676 37.0948 184.676 35.9123V29.1445C184.676 26.0248 181.663 25.4461 179.159 25.4461C176.34 25.4461 173.448 26.4525 173.254 29.7987H176.705Z" fill="#A6192E"/>
<path d="M186.845 38.8056H190.126V37.1451H190.175C190.928 38.5792 192.459 39.1578 194.306 39.1578C196.81 39.1578 199.507 37.0696 199.507 32.2894C199.507 27.5343 196.81 25.4461 194.306 25.4461C192.751 25.4461 191.196 26.05 190.345 27.3834H190.296V20.842H186.845V38.8056ZM196.056 32.3146C196.056 34.4782 195.157 36.4658 193.116 36.4658C191.074 36.4658 190.175 34.4782 190.175 32.3146C190.175 30.1257 191.074 28.1382 193.116 28.1382C195.157 28.1382 196.056 30.1257 196.056 32.3146Z" fill="#A6192E"/>
<path d="M212.828 33.17C213.071 29.1697 211.006 25.4461 206.728 25.4461C202.913 25.4461 200.312 28.4149 200.312 32.3146C200.312 36.34 202.767 39.1578 206.728 39.1578C209.572 39.1578 211.638 37.8496 212.61 34.7802H209.572C209.353 35.5852 208.235 36.4658 206.85 36.4658C204.93 36.4658 203.861 35.4343 203.763 33.17H212.828ZM203.763 30.9057C203.812 29.8993 204.444 28.1382 206.631 28.1382C208.308 28.1382 209.061 29.0942 209.377 30.9057H203.763Z" fill="#A6192E"/>
<path d="M218.046 21.8987H214.595V25.7984H212.505V28.1885H214.595V35.862C214.595 38.4534 216.442 38.9566 218.556 38.9566C219.237 38.9566 219.99 38.9314 220.573 38.8308V36.0381C220.209 36.1136 219.869 36.1387 219.504 36.1387C218.337 36.1387 218.046 35.8368 218.046 34.6292V28.1885H220.573V25.7984H218.046V21.8987Z" fill="#A6192E"/>
<path d="M232.965 33.17C233.208 29.1697 231.142 25.4461 226.865 25.4461C223.049 25.4461 220.449 28.4149 220.449 32.3146C220.449 36.34 222.904 39.1578 226.865 39.1578C229.708 39.1578 231.774 37.8496 232.746 34.7802H229.708C229.49 35.5852 228.372 36.4658 226.987 36.4658C225.067 36.4658 223.997 35.4343 223.9 33.17H232.965ZM223.9 30.9057C223.949 29.8993 224.581 28.1382 226.768 28.1382C228.445 28.1382 229.198 29.0942 229.514 30.9057H223.9Z" fill="#A6192E"/>
<path d="M233.275 34.5789C233.421 38.0257 236.264 39.1578 239.181 39.1578C242.048 39.1578 244.916 38.0508 244.916 34.6292C244.916 32.2139 242.947 31.4592 240.93 30.9811C238.962 30.5031 237.018 30.327 237.018 29.0439C237.018 27.9872 238.16 27.8363 238.937 27.8363C240.177 27.8363 241.198 28.2136 241.295 29.5974H244.576C244.308 26.4022 241.781 25.4461 239.035 25.4461C236.337 25.4461 233.567 26.3016 233.567 29.6226C233.567 31.912 235.559 32.6416 237.552 33.0945C240.031 33.648 241.465 34.0254 241.465 35.1072C241.465 36.3652 240.201 36.7677 239.205 36.7677C237.844 36.7677 236.58 36.1387 236.556 34.5789H233.275Z" fill="#A6192E"/>
<path d="M247.216 38.8056H251.031V32.3649H255.041C259.367 32.3649 261.044 29.5219 261.044 26.6035C261.044 23.685 259.367 20.842 255.041 20.842H247.216V38.8056ZM251.031 23.9114H253.996C255.77 23.9114 257.35 24.314 257.35 26.6035C257.35 28.8929 255.77 29.2955 253.996 29.2955H251.031V23.9114Z" fill="#A6192E"/>
<path d="M261.776 38.8056H265.227V32.9435C265.227 30.6541 266.102 28.7671 268.629 28.7671C269.043 28.7671 269.553 28.8175 269.869 28.8929V25.5719C269.65 25.4965 269.359 25.4461 269.115 25.4461C267.439 25.4461 265.737 26.5783 265.105 28.2136H265.057V25.7984H261.776V38.8056Z" fill="#A6192E"/>
<path d="M270.14 32.3146C270.14 36.4407 272.692 39.1578 276.629 39.1578C280.591 39.1578 283.143 36.4407 283.143 32.3146C283.143 28.1633 280.591 25.4461 276.629 25.4461C272.692 25.4461 270.14 28.1633 270.14 32.3146ZM273.591 32.3146C273.591 30.2264 274.296 28.1382 276.629 28.1382C278.987 28.1382 279.691 30.2264 279.691 32.3146C279.691 34.3776 278.987 36.4658 276.629 36.4658C274.296 36.4658 273.591 34.3776 273.591 32.3146Z" fill="#A6192E"/>
<path fill-rule="evenodd" clip-rule="evenodd" d="M142.505 60L142.505 -5.52144e-08L143.744 0L143.744 60L142.505 60Z" fill="black"/>
<defs>
<clipPath id="clip0_1775_9984">
<rect width="135.07" height="39.1579" fill="white" transform="translate(0 10.1052)"/>
</clipPath>
</defs>
</svg>
