<?xml version="1.0" encoding="UTF-8"?>
<!-- Generator: Adobe Illustrator 26.3.1, SVG Export Plug-In . SVG Version: 6.00 Build 0)  -->
<svg version="1.1" xmlns="http://www.w3.org/2000/svg" xmlns:xlink="http://www.w3.org/1999/xlink" height="72" width="173"  x="0px" y="0px" viewBox="0 0 173 72" style="enable-background:new 0 0 173 72;" xml:space="preserve">
<style type="text/css">
	.st0{fill-rule:evenodd;clip-rule:evenodd;fill:#A6192E;}
	.st1{fill:#A6192E;}
	.st2{fill-rule:evenodd;clip-rule:evenodd;fill:#231F20;}
	.st3{fill:#231F20;}
	.st4{display:none;}
	.st5{display:inline;fill-rule:evenodd;clip-rule:evenodd;fill:#231F20;}
</style>
<g id="Layer_1">
	<g>
		<g>
			<g>
				<path class="st0" d="M58.9,48.92c1.34,0,2.48-1.04,2.48-2.46c0-1.41-1.14-2.45-2.48-2.45c-1.35,0-2.49,1.04-2.49,2.45      C56.41,47.88,57.55,48.92,58.9,48.92L58.9,48.92z M56.9,46.46c0-1.16,0.88-2.04,2-2.04c1.11,0,1.99,0.88,1.99,2.04      c0,1.18-0.88,2.05-1.99,2.05C57.78,48.51,56.9,47.64,56.9,46.46L56.9,46.46z M58.38,46.65h0.49l0.75,1.23h0.48l-0.8-1.25      c0.42-0.05,0.73-0.27,0.73-0.78c0-0.56-0.33-0.8-1-0.8h-1.08v2.83h0.43V46.65L58.38,46.65z M58.38,46.29v-0.88h0.58      c0.3,0,0.62,0.06,0.62,0.42c0,0.44-0.32,0.46-0.69,0.46H58.38L58.38,46.29z"/>
				<polygon class="st1" points="22.02,11.2 28,21.64 43.55,48.82 55.53,48.82 27.9,0.96 22.02,11.2     "/>
				<polygon class="st1" points="15.98,21.41 0.27,48.82 31.07,48.82 37.39,37.97 18.48,37.97 27.92,21.41 15.98,21.41     "/>
				<path class="st2" d="M92.85,7.5c0-2.22-1.54-3.38-3.51-3.38c-1.62,0-2.36,1.12-2.7,1.62c-0.68-1.08-1.35-1.62-2.81-1.62      c-1.79,0-2.53,1.08-2.87,1.75h-0.04V4.38h-2.55v10.11h2.66V8.34c0-1.1,0.4-1.98,1.65-1.98c1.6,0,1.6,1.2,1.6,2.05v6.08h2.66      V8.43c0-1.2,0.48-2.07,1.81-2.07c0.78,0,1.44,0.49,1.44,2v6.14h2.66V7.5L92.85,7.5z"/>
				<path class="st2" d="M104.86,14.49h2.66V9.23c0-1.12,0.38-2.41,2.45-2.41c0.25,0,0.53,0,0.76,0.04v-2.7      c-0.17-0.02-0.34-0.04-0.51-0.04c-1.61,0-2.22,0.99-2.77,2.01h-0.04V4.38h-2.55V14.49L104.86,14.49z"/>
				<path class="st2" d="M111.86,4.38v10.11h2.66V4.38H111.86L111.86,4.38z M114.52,0.72h-2.66v2.47h2.66V0.72L114.52,0.72z"/>
				<path class="st2" d="M122.59,10.81c0,0.48-0.46,1.77-1.8,1.77c-2.01,0-2.05-2.19-2.05-3.29c0-1.25,0.44-2.93,2.11-2.93      c1.24-0.08,1.65,0.97,1.77,1.63h2.7c-0.25-3.15-2.87-3.88-4.47-3.88c-3.42,0-4.85,2.34-4.85,5.61c0,2.13,0.87,5.04,4.67,5.04      c3.71,0,4.52-2.91,4.62-3.95H122.59L122.59,10.81z"/>
				<path class="st2" d="M134.85,7.04c0-2.49-2.6-2.93-4.03-2.93c-2.07,0-4.22,0.44-4.52,3.53h2.56c0.08-0.59,0.3-1.41,1.63-1.41      c0.68,0,1.75,0.06,1.75,1.18c0,0.57-0.51,0.74-0.93,0.8l-2.39,0.36c-1.69,0.25-2.94,1.25-2.94,3.23c0,2.09,1.56,2.95,3.08,2.95      c1.8,0,2.66-0.84,3.27-1.46c0.06,0.57,0.09,0.72,0.25,1.2h2.87v-0.4c-0.32-0.11-0.59-0.38-0.59-1.58V7.04L134.85,7.04z       M132.25,10.86c0,1.24-1.2,1.99-2.37,1.99c-0.51,0-1.24-0.28-1.24-1.22c0-1.1,0.82-1.35,1.8-1.52c1.1-0.17,1.54-0.34,1.8-0.55      V10.86L132.25,10.86z"/>
				<path class="st2" d="M145.88,7.5c0-2.22-1.54-3.38-3.52-3.38c-1.92,0-2.68,1.14-3.04,1.75h-0.04V4.38h-2.55v10.11h2.66V8.7      c0-1.54,0.91-2.34,2.09-2.34c1.69,0,1.73,1.25,1.73,2v6.14h2.66V7.5L145.88,7.5z"/>
				<path class="st2" d="M68.26,11.68h5.03l0.87,2.81h3.1L72.45,0.85h-3.29L64.3,14.49h3L68.26,11.68L68.26,11.68z M70.76,3.93h0.04      l1.69,5.4h-3.48L70.76,3.93L70.76,3.93z"/>
				<path class="st2" d="M100.75,11.53c-0.21,0.72-0.97,1.1-1.71,1.1c-2.15,0-2.3-1.71-2.38-2.47h6.94V9.69      c0-4.62-2.76-5.57-4.75-5.57c-4.43,0-4.85,3.9-4.85,5.11c0,4.16,2.19,5.53,5.04,5.53c1.73,0,3.74-0.8,4.45-3.23H100.75      L100.75,11.53z M96.74,8.43c0.15-1.33,0.82-2.13,2.07-2.13c0.86,0,1.9,0.49,2.05,2.13H96.74L96.74,8.43z"/>
				<path class="st2" d="M169.93,48.76c1.34,0,2.48-1.04,2.48-2.46c0-1.41-1.14-2.45-2.48-2.45c-1.35,0-2.49,1.04-2.49,2.45      C167.44,47.72,168.58,48.76,169.93,48.76L169.93,48.76z M167.93,46.29c0-1.16,0.88-2.04,2-2.04c1.11,0,1.99,0.88,1.99,2.04      c0,1.18-0.88,2.05-1.99,2.05C168.81,48.35,167.93,47.48,167.93,46.29L167.93,46.29z M169.41,46.49h0.49l0.75,1.23h0.48      l-0.81-1.25c0.42-0.05,0.73-0.27,0.73-0.78c0-0.56-0.33-0.8-1-0.8h-1.08v2.83h0.43V46.49L169.41,46.49z M169.41,46.13v-0.88H170      c0.3,0,0.62,0.06,0.62,0.42c0,0.44-0.32,0.46-0.69,0.46H169.41L169.41,46.13z"/>
				<path class="st2" d="M165.53,41.72c0-2.22-1.54-3.38-3.52-3.38c-1.92,0-2.68,1.14-3.04,1.75h-0.04V38.6h-2.55v10.11h2.66v-5.8      c0-1.54,0.91-2.34,2.09-2.34c1.69,0,1.73,1.25,1.73,2v6.14h2.66V41.72L165.53,41.72z"/>
				<path class="st2" d="M68.26,45.9h5.03l0.87,2.81h3.1l-4.81-13.64h-3.29L64.3,48.71h3L68.26,45.9L68.26,45.9z M70.76,38.15h0.04      l1.69,5.4h-3.48L70.76,38.15L70.76,38.15z"/>
				<path class="st2" d="M86.72,41.68c-0.21-2.85-2.57-3.35-4.54-3.35c-3.15,0-4.09,1.9-4.09,3.38c0,3.78,6.27,2.51,6.27,4.2      c0,0.38-0.32,1.05-1.69,1.05c-1.67,0-2.2-0.63-2.2-1.48h-2.74c0.08,2.7,2.56,3.5,4.86,3.5c1.58,0,4.43-0.53,4.43-3.48      c0-3.72-6.33-2.56-6.33-4.16c0-0.44,0.19-0.99,1.63-0.99c1.44,0,1.67,0.68,1.79,1.33H86.72L86.72,41.68z"/>
				<path class="st2" d="M96.8,41.68c-0.21-2.85-2.57-3.35-4.54-3.35c-3.15,0-4.08,1.9-4.08,3.38c0,3.78,6.27,2.51,6.27,4.2      c0,0.38-0.32,1.05-1.69,1.05c-1.67,0-2.2-0.63-2.2-1.48h-2.74c0.08,2.7,2.57,3.5,4.86,3.5c1.58,0,4.43-0.53,4.43-3.48      c0-3.72-6.33-2.56-6.33-4.16c0-0.44,0.19-0.99,1.63-0.99c1.44,0,1.67,0.68,1.79,1.33H96.8L96.8,41.68z"/>
				<path class="st2" d="M108.3,43.66c0-3.65-2.45-5.32-5.17-5.32s-5.17,1.67-5.17,5.32c0,3.65,2.45,5.32,5.17,5.32      S108.3,47.31,108.3,43.66L108.3,43.66z M105.56,43.66c0,1.29-0.38,3.08-2.43,3.08c-2.05,0-2.43-1.79-2.43-3.08      c0-1.29,0.38-3.08,2.43-3.08C105.18,40.58,105.56,42.37,105.56,43.66L105.56,43.66z"/>
				<path class="st2" d="M115.68,45.03c0,0.47-0.46,1.77-1.8,1.77c-2.01,0-2.05-2.19-2.05-3.29c0-1.25,0.44-2.93,2.11-2.93      c1.24-0.08,1.65,0.97,1.77,1.63h2.7c-0.25-3.15-2.87-3.88-4.46-3.88c-3.42,0-4.85,2.34-4.85,5.61c0,2.13,0.87,5.03,4.67,5.03      c3.71,0,4.52-2.91,4.62-3.95H115.68L115.68,45.03z"/>
				<path class="st2" d="M119.83,38.6v10.11h2.66V38.6H119.83L119.83,38.6z M122.49,34.94h-2.66v2.47h2.66V34.94L122.49,34.94z"/>
				<path class="st2" d="M132.74,41.26c0-2.49-2.6-2.93-4.03-2.93c-2.07,0-4.22,0.44-4.52,3.53h2.57c0.08-0.59,0.3-1.41,1.63-1.41      c0.68,0,1.75,0.06,1.75,1.18c0,0.57-0.51,0.74-0.93,0.8l-2.39,0.36c-1.69,0.25-2.94,1.25-2.94,3.23c0,2.09,1.56,2.94,3.08,2.94      c1.81,0,2.66-0.84,3.27-1.46c0.06,0.57,0.09,0.72,0.25,1.2h2.87v-0.4c-0.32-0.11-0.59-0.38-0.59-1.58V41.26L132.74,41.26z       M130.14,45.08c0,1.24-1.2,2-2.38,2c-0.51,0-1.24-0.28-1.24-1.22c0-1.1,0.82-1.35,1.81-1.52c1.1-0.17,1.54-0.34,1.8-0.55V45.08      L130.14,45.08z"/>
				<path class="st2" d="M137.62,35.87h-2.66v2.74h-1.37v1.9h1.37v6.14c0,1.31,0.42,2.19,2.72,2.19h0.34c0.42,0,0.84-0.02,1.25-0.04      v-2.01c-0.19,0.02-0.38,0.04-0.55,0.04c-1.08,0-1.1-0.23-1.1-0.82V40.5h1.65v-1.9h-1.65V35.87L137.62,35.87z"/>
				<path class="st2" d="M140.55,38.6v10.11h2.66V38.6H140.55L140.55,38.6z M143.21,34.94h-2.66v2.47h2.66V34.94L143.21,34.94z"/>
				<path class="st2" d="M155.02,43.66c0-3.65-2.45-5.32-5.17-5.32c-2.72,0-5.17,1.67-5.17,5.32c0,3.65,2.45,5.32,5.17,5.32      C152.57,48.98,155.02,47.31,155.02,43.66L155.02,43.66z M152.28,43.66c0,1.29-0.38,3.08-2.43,3.08c-2.05,0-2.43-1.79-2.43-3.08      c0-1.29,0.38-3.08,2.43-3.08C151.9,40.58,152.28,42.37,152.28,43.66L152.28,43.66z"/>
				<path class="st2" d="M65.72,31.6h5.91c4.5,0,5.66-4.22,5.66-7.14c0-2.58-0.95-6.5-5.55-6.5h-6.02V31.6L65.72,31.6z M68.51,20.32      h2.74c1.22,0,3.14,0.32,3.14,4.35c0,2.24-0.78,4.58-3.1,4.58h-2.77V20.32L68.51,20.32z"/>
				<path class="st2" d="M78.82,21.49V31.6h2.66V21.49H78.82L78.82,21.49z M81.48,17.83h-2.66v2.47h2.66V17.83L81.48,17.83z"/>
				<path class="st2" d="M100.63,26.62c0,1.2-0.47,3.06-2.19,3.06c-1.69,0-2.36-1.41-2.36-2.91c0-1.61,0.46-3.25,2.28-3.25      C100.06,23.53,100.63,25.03,100.63,26.62L100.63,26.62z M96.21,17.96h-2.66V31.6h2.6v-1.27h0.04c0.65,1.14,1.82,1.54,2.93,1.54      c3,0,4.26-2.66,4.26-5.43c0-3.5-1.98-5.21-4.2-5.21c-1.71,0-2.51,0.93-2.93,1.58h-0.04V17.96L96.21,17.96z"/>
				<path class="st2" d="M117.81,18.76h-2.66v2.74h-1.37v1.9h1.37v6.14c0,1.31,0.42,2.18,2.72,2.18h0.34c0.42,0,0.84-0.02,1.25-0.04      v-2.01c-0.19,0.02-0.38,0.04-0.55,0.04c-1.08,0-1.1-0.23-1.1-0.82v-5.49h1.65v-1.9h-1.65V18.76L117.81,18.76z"/>
				<path class="st2" d="M126.61,28.64c-0.21,0.72-0.97,1.1-1.71,1.1c-2.15,0-2.3-1.71-2.38-2.47h6.94V26.8      c0-4.62-2.76-5.57-4.75-5.57c-4.43,0-4.85,3.89-4.85,5.11c0,4.16,2.19,5.53,5.04,5.53c1.73,0,3.74-0.8,4.45-3.23H126.61      L126.61,28.64z M122.61,25.54c0.15-1.33,0.82-2.13,2.07-2.13c0.85,0,1.9,0.49,2.05,2.13H122.61L122.61,25.54z"/>
				<path class="st2" d="M91.73,24.15c0-2.49-2.6-2.93-4.03-2.93c-2.07,0-4.22,0.44-4.52,3.53h2.56c0.08-0.59,0.3-1.41,1.63-1.41      c0.68,0,1.75,0.06,1.75,1.18c0,0.57-0.51,0.74-0.93,0.8l-2.39,0.36c-1.69,0.25-2.95,1.25-2.95,3.23c0,2.09,1.56,2.94,3.08,2.94      c1.81,0,2.66-0.84,3.27-1.46c0.06,0.57,0.09,0.72,0.25,1.2h2.87v-0.4c-0.32-0.11-0.59-0.38-0.59-1.58V24.15L91.73,24.15z       M89.13,27.97c0,1.24-1.2,2-2.38,2c-0.51,0-1.23-0.29-1.23-1.22c0-1.1,0.82-1.35,1.81-1.52c1.1-0.17,1.54-0.34,1.81-0.55V27.97      L89.13,27.97z"/>
				<path class="st2" d="M110.69,28.64c-0.21,0.72-0.97,1.1-1.71,1.1c-2.15,0-2.3-1.71-2.38-2.47h6.93V26.8      c0-4.62-2.75-5.57-4.75-5.57c-4.43,0-4.84,3.89-4.84,5.11c0,4.16,2.18,5.53,5.04,5.53c1.73,0,3.74-0.8,4.45-3.23H110.69      L110.69,28.64z M106.69,25.54c0.15-1.33,0.82-2.13,2.07-2.13c0.86,0,1.9,0.49,2.05,2.13H106.69L106.69,25.54z"/>
				<path class="st2" d="M139.07,24.57c-0.21-2.85-2.56-3.34-4.54-3.34c-3.15,0-4.08,1.9-4.08,3.38c0,3.78,6.27,2.51,6.27,4.2      c0,0.38-0.32,1.05-1.69,1.05c-1.67,0-2.2-0.63-2.2-1.48h-2.74c0.08,2.7,2.56,3.5,4.86,3.5c1.58,0,4.43-0.53,4.43-3.48      c0-3.72-6.33-2.56-6.33-4.16c0-0.44,0.19-0.99,1.63-0.99c1.44,0,1.67,0.68,1.79,1.33H139.07L139.07,24.57z"/>
			</g>
			<g>
				<path class="st3" d="M27.22,61.2c-0.59-0.41-1.29-0.62-2.1-0.62c-0.69,0-1.28,0.13-1.77,0.39c-0.49,0.26-0.9,0.61-1.22,1.05      c-0.32,0.44-0.55,0.94-0.7,1.5c-0.15,0.56-0.23,1.15-0.23,1.75c0,0.66,0.08,1.28,0.23,1.87c0.15,0.59,0.39,1.1,0.7,1.54      c0.32,0.44,0.73,0.79,1.22,1.05c0.5,0.26,1.09,0.39,1.78,0.39c0.51,0,0.96-0.08,1.35-0.25c0.39-0.17,0.73-0.4,1.02-0.7      c0.29-0.3,0.51-0.65,0.67-1.06c0.16-0.41,0.26-0.85,0.29-1.33h1.54c-0.15,1.46-0.65,2.59-1.51,3.4      c-0.85,0.81-2.02,1.22-3.5,1.22c-0.9,0-1.68-0.15-2.35-0.46c-0.67-0.31-1.23-0.73-1.67-1.27c-0.44-0.54-0.78-1.18-1-1.91      c-0.22-0.74-0.33-1.52-0.33-2.37c0-0.84,0.12-1.63,0.36-2.37c0.24-0.74,0.59-1.39,1.05-1.94c0.46-0.55,1.03-0.99,1.72-1.3      c0.69-0.32,1.47-0.48,2.36-0.48c0.6,0,1.18,0.08,1.72,0.24c0.54,0.16,1.02,0.4,1.44,0.71c0.42,0.31,0.77,0.7,1.05,1.17      c0.28,0.47,0.46,1.01,0.55,1.63h-1.54C28.19,62.22,27.81,61.61,27.22,61.2z"/>
				<path class="st3" d="M31.51,65.22c0.17-0.53,0.43-1,0.78-1.39c0.35-0.39,0.77-0.7,1.28-0.93c0.51-0.23,1.09-0.34,1.75-0.34      c0.67,0,1.26,0.11,1.76,0.34c0.5,0.23,0.93,0.54,1.27,0.93c0.35,0.39,0.6,0.86,0.78,1.39c0.17,0.53,0.26,1.11,0.26,1.73      c0,0.62-0.09,1.19-0.26,1.72c-0.17,0.53-0.43,0.99-0.78,1.39c-0.35,0.39-0.77,0.7-1.27,0.92c-0.5,0.22-1.09,0.33-1.76,0.33      c-0.66,0-1.24-0.11-1.75-0.33c-0.51-0.22-0.93-0.53-1.28-0.92c-0.35-0.39-0.61-0.86-0.78-1.39c-0.17-0.53-0.26-1.1-0.26-1.72      C31.25,66.33,31.33,65.76,31.51,65.22z M32.91,68.3c0.13,0.39,0.32,0.72,0.56,0.99c0.24,0.26,0.52,0.47,0.83,0.61      c0.32,0.14,0.66,0.21,1.01,0.21c0.36,0,0.69-0.07,1.01-0.21c0.32-0.14,0.6-0.34,0.83-0.61c0.24-0.27,0.42-0.59,0.56-0.99      c0.13-0.39,0.2-0.84,0.2-1.35c0-0.51-0.07-0.96-0.2-1.35c-0.14-0.39-0.32-0.73-0.56-1c-0.24-0.27-0.52-0.48-0.83-0.62      c-0.32-0.14-0.66-0.21-1.01-0.21c-0.36,0-0.69,0.07-1.01,0.21c-0.32,0.14-0.6,0.35-0.83,0.62c-0.24,0.27-0.42,0.6-0.56,1      c-0.14,0.39-0.2,0.85-0.2,1.35C32.71,67.46,32.77,67.91,32.91,68.3z"/>
				<path class="st3" d="M42.3,62.75v1.33h0.03c0.57-1.02,1.48-1.52,2.72-1.52c0.55,0,1.01,0.08,1.38,0.23      c0.37,0.15,0.66,0.36,0.89,0.63c0.23,0.27,0.39,0.59,0.48,0.96c0.09,0.37,0.14,0.79,0.14,1.24v5.51h-1.38v-5.67      c0-0.52-0.15-0.93-0.45-1.23c-0.3-0.3-0.72-0.45-1.25-0.45c-0.42,0-0.79,0.06-1.09,0.19c-0.31,0.13-0.56,0.31-0.77,0.55      c-0.21,0.24-0.36,0.52-0.46,0.83c-0.1,0.32-0.15,0.67-0.15,1.05v4.73H41v-8.38H42.3z"/>
				<path class="st3" d="M51.31,62.75v1.33h0.03c0.57-1.02,1.48-1.52,2.72-1.52c0.55,0,1.01,0.08,1.38,0.23      c0.37,0.15,0.66,0.36,0.89,0.63c0.23,0.27,0.39,0.59,0.48,0.96c0.09,0.37,0.14,0.79,0.14,1.24v5.51h-1.38v-5.67      c0-0.52-0.15-0.93-0.45-1.23c-0.3-0.3-0.72-0.45-1.25-0.45c-0.42,0-0.79,0.06-1.09,0.19c-0.31,0.13-0.56,0.31-0.77,0.55      c-0.21,0.24-0.36,0.52-0.46,0.83c-0.1,0.32-0.15,0.67-0.15,1.05v4.73h-1.38v-8.38H51.31z"/>
				<path class="st3" d="M64.95,70.59c-0.63,0.48-1.42,0.71-2.37,0.71c-0.67,0-1.25-0.11-1.74-0.32c-0.49-0.22-0.9-0.52-1.24-0.91      c-0.34-0.39-0.59-0.85-0.75-1.39c-0.17-0.54-0.26-1.13-0.28-1.77c0-0.64,0.1-1.22,0.29-1.75c0.19-0.53,0.47-0.99,0.82-1.38      c0.35-0.39,0.77-0.69,1.25-0.91c0.48-0.22,1.01-0.32,1.58-0.32c0.75,0,1.36,0.15,1.86,0.46c0.49,0.31,0.89,0.7,1.18,1.17      c0.3,0.48,0.5,0.99,0.62,1.56c0.11,0.56,0.16,1.1,0.14,1.6h-6.27c-0.01,0.37,0.03,0.72,0.13,1.05c0.1,0.33,0.25,0.62,0.47,0.88      c0.22,0.25,0.49,0.46,0.83,0.61c0.34,0.15,0.73,0.23,1.18,0.23c0.58,0,1.06-0.14,1.43-0.41c0.37-0.27,0.62-0.68,0.74-1.23h1.36      C65.98,69.41,65.58,70.12,64.95,70.59z M64.62,65.22c-0.12-0.29-0.29-0.54-0.5-0.75c-0.21-0.21-0.46-0.38-0.75-0.5      c-0.29-0.12-0.6-0.19-0.95-0.19c-0.36,0-0.68,0.06-0.96,0.19c-0.29,0.12-0.53,0.29-0.74,0.51c-0.21,0.22-0.37,0.47-0.49,0.75      c-0.12,0.29-0.19,0.59-0.21,0.92h4.81C64.82,65.82,64.74,65.51,64.62,65.22z"/>
				<path class="st3" d="M72.73,64.21c-0.35-0.29-0.81-0.44-1.39-0.44c-0.5,0-0.91,0.09-1.25,0.28c-0.34,0.18-0.6,0.43-0.8,0.73      c-0.2,0.3-0.34,0.65-0.43,1.05c-0.09,0.39-0.13,0.8-0.13,1.22c0,0.39,0.05,0.77,0.14,1.13c0.09,0.37,0.23,0.69,0.43,0.98      c0.19,0.29,0.45,0.52,0.76,0.69c0.31,0.17,0.69,0.26,1.12,0.26c0.68,0,1.21-0.18,1.6-0.53c0.38-0.36,0.62-0.86,0.7-1.51h1.41      c-0.15,1.04-0.54,1.84-1.16,2.4c-0.62,0.56-1.47,0.84-2.54,0.84c-0.64,0-1.2-0.1-1.69-0.31c-0.49-0.2-0.9-0.5-1.23-0.88      c-0.33-0.38-0.58-0.83-0.75-1.35c-0.17-0.52-0.25-1.1-0.25-1.73s0.08-1.21,0.24-1.76c0.16-0.55,0.41-1.02,0.74-1.43      c0.33-0.41,0.74-0.72,1.24-0.96c0.5-0.23,1.07-0.35,1.73-0.35c0.48,0,0.92,0.06,1.34,0.17c0.42,0.11,0.78,0.29,1.1,0.53      c0.32,0.24,0.58,0.54,0.79,0.9c0.2,0.36,0.33,0.79,0.39,1.29h-1.43C73.3,64.91,73.07,64.5,72.73,64.21z"/>
				<path class="st3" d="M80,62.75v1.22h-1.67v5.2c0,0.16,0.01,0.29,0.04,0.39c0.03,0.1,0.08,0.17,0.15,0.23      c0.08,0.05,0.18,0.09,0.32,0.11c0.14,0.02,0.31,0.02,0.53,0.02H80v1.22h-1.05c-0.36,0-0.66-0.02-0.92-0.07      c-0.25-0.05-0.46-0.14-0.62-0.27c-0.16-0.13-0.27-0.31-0.35-0.55c-0.08-0.24-0.11-0.55-0.11-0.94v-5.33h-1.43v-1.22h1.43v-2.51      h1.38v2.51H80z"/>
				<path class="st3" d="M87.46,70.59c-0.63,0.48-1.41,0.71-2.37,0.71c-0.67,0-1.25-0.11-1.74-0.32c-0.49-0.22-0.91-0.52-1.24-0.91      c-0.33-0.39-0.59-0.85-0.75-1.39c-0.17-0.54-0.26-1.13-0.28-1.77c0-0.64,0.1-1.22,0.29-1.75c0.19-0.53,0.47-0.99,0.82-1.38      c0.35-0.39,0.77-0.69,1.25-0.91c0.48-0.22,1.01-0.32,1.58-0.32c0.75,0,1.36,0.15,1.86,0.46c0.49,0.31,0.89,0.7,1.18,1.17      c0.3,0.48,0.5,0.99,0.62,1.56c0.11,0.56,0.16,1.1,0.14,1.6h-6.27c-0.01,0.37,0.03,0.72,0.13,1.05c0.1,0.33,0.25,0.62,0.47,0.88      s0.49,0.46,0.83,0.61c0.33,0.15,0.73,0.23,1.18,0.23c0.58,0,1.06-0.14,1.43-0.41s0.62-0.68,0.74-1.23h1.36      C88.49,69.41,88.08,70.12,87.46,70.59z M87.13,65.22c-0.12-0.29-0.29-0.54-0.5-0.75c-0.21-0.21-0.46-0.38-0.75-0.5      c-0.29-0.12-0.6-0.19-0.95-0.19c-0.36,0-0.68,0.06-0.96,0.19c-0.29,0.12-0.53,0.29-0.74,0.51c-0.2,0.22-0.37,0.47-0.49,0.75      c-0.12,0.29-0.19,0.59-0.21,0.92h4.81C87.32,65.82,87.25,65.51,87.13,65.22z"/>
				<path class="st3" d="M96.34,71.13v-1.13H96.3c-0.23,0.47-0.58,0.8-1.07,1c-0.49,0.2-1.02,0.31-1.6,0.31      c-0.65,0-1.21-0.12-1.69-0.36c-0.48-0.24-0.88-0.56-1.2-0.96c-0.32-0.4-0.56-0.86-0.72-1.39c-0.16-0.53-0.24-1.09-0.24-1.69      c0-0.59,0.08-1.16,0.23-1.69s0.39-0.99,0.71-1.39c0.32-0.39,0.72-0.71,1.2-0.94c0.48-0.23,1.04-0.35,1.68-0.35      c0.22,0,0.45,0.02,0.7,0.06c0.25,0.04,0.5,0.12,0.75,0.22c0.25,0.1,0.48,0.24,0.7,0.41c0.22,0.17,0.41,0.38,0.56,0.62h0.03      v-4.31h1.38v11.57H96.34z M91.39,68.16c0.1,0.37,0.26,0.7,0.47,1c0.21,0.29,0.48,0.52,0.81,0.7c0.33,0.17,0.72,0.26,1.16,0.26      c0.46,0,0.86-0.09,1.18-0.28c0.32-0.18,0.59-0.42,0.79-0.72c0.2-0.3,0.35-0.63,0.45-1.01c0.09-0.38,0.14-0.76,0.14-1.15      c0-0.41-0.05-0.81-0.15-1.19c-0.1-0.38-0.25-0.72-0.46-1.01c-0.21-0.29-0.48-0.53-0.82-0.7c-0.33-0.18-0.74-0.27-1.22-0.27      c-0.46,0-0.86,0.09-1.18,0.28c-0.32,0.18-0.58,0.43-0.78,0.73c-0.19,0.3-0.34,0.65-0.42,1.04c-0.09,0.39-0.13,0.79-0.13,1.2      C91.23,67.4,91.28,67.78,91.39,68.16z"/>
				<path class="st1" d="M103.5,63.97v-1.22h1.41V61.5c0-0.68,0.2-1.2,0.59-1.55c0.39-0.35,0.97-0.53,1.73-0.53      c0.13,0,0.28,0.01,0.45,0.03c0.17,0.02,0.32,0.05,0.45,0.1v1.2c-0.12-0.04-0.25-0.07-0.39-0.09c-0.14-0.02-0.27-0.02-0.39-0.02      c-0.34,0-0.59,0.06-0.78,0.19c-0.18,0.13-0.28,0.38-0.28,0.75v1.17h1.62v1.22h-1.62v7.16h-1.38v-7.16H103.5z"/>
				<path class="st1" d="M108.94,65.22c0.17-0.53,0.43-1,0.78-1.39c0.35-0.39,0.77-0.7,1.28-0.93s1.09-0.34,1.75-0.34      c0.67,0,1.26,0.11,1.76,0.34s0.93,0.54,1.27,0.93c0.34,0.39,0.6,0.86,0.78,1.39c0.17,0.53,0.26,1.11,0.26,1.73      c0,0.62-0.09,1.19-0.26,1.72c-0.17,0.53-0.43,0.99-0.78,1.39c-0.35,0.39-0.77,0.7-1.27,0.92c-0.5,0.22-1.09,0.33-1.76,0.33      c-0.66,0-1.24-0.11-1.75-0.33c-0.51-0.22-0.93-0.53-1.28-0.92c-0.35-0.39-0.61-0.86-0.78-1.39c-0.17-0.53-0.26-1.1-0.26-1.72      C108.68,66.33,108.77,65.76,108.94,65.22z M110.34,68.3c0.14,0.39,0.32,0.72,0.56,0.99c0.24,0.26,0.52,0.47,0.83,0.61      c0.32,0.14,0.66,0.21,1.01,0.21c0.36,0,0.69-0.07,1.01-0.21c0.32-0.14,0.6-0.34,0.83-0.61c0.24-0.27,0.42-0.59,0.56-0.99      c0.14-0.39,0.2-0.84,0.2-1.35c0-0.51-0.07-0.96-0.2-1.35c-0.14-0.39-0.32-0.73-0.56-1c-0.24-0.27-0.52-0.48-0.83-0.62      c-0.32-0.14-0.66-0.21-1.01-0.21c-0.36,0-0.69,0.07-1.01,0.21c-0.32,0.14-0.6,0.35-0.83,0.62c-0.24,0.27-0.42,0.6-0.56,1      c-0.13,0.39-0.2,0.85-0.2,1.35C110.14,67.46,110.21,67.91,110.34,68.3z"/>
				<path class="st1" d="M119.68,62.75v1.77h0.03c0.33-0.68,0.75-1.18,1.23-1.51c0.49-0.32,1.1-0.48,1.85-0.45v1.46      c-0.55,0-1.02,0.08-1.41,0.23c-0.39,0.15-0.7,0.37-0.94,0.66c-0.24,0.29-0.41,0.65-0.52,1.06c-0.11,0.42-0.16,0.89-0.16,1.43      v3.73h-1.38v-8.38H119.68z"/>
				<path class="st1" d="M130.1,59.56v10.27h6.12v1.3h-7.66V59.56H130.1z"/>
				<path class="st1" d="M137.43,61.25v-1.69h1.38v1.69H137.43z M138.8,62.75v8.38h-1.38v-8.38H138.8z"/>
				<path class="st1" d="M140.1,63.97v-1.22h1.41V61.5c0-0.68,0.2-1.2,0.59-1.55c0.39-0.35,0.97-0.53,1.73-0.53      c0.13,0,0.28,0.01,0.45,0.03c0.17,0.02,0.32,0.05,0.45,0.1v1.2c-0.12-0.04-0.25-0.07-0.39-0.09c-0.14-0.02-0.27-0.02-0.39-0.02      c-0.34,0-0.59,0.06-0.78,0.19c-0.18,0.13-0.28,0.38-0.28,0.75v1.17h1.62v1.22h-1.62v7.16h-1.38v-7.16H140.1z"/>
				<path class="st1" d="M151.67,70.59c-0.63,0.48-1.41,0.71-2.37,0.71c-0.67,0-1.25-0.11-1.74-0.32c-0.49-0.22-0.91-0.52-1.24-0.91      c-0.33-0.39-0.59-0.85-0.75-1.39c-0.17-0.54-0.26-1.13-0.28-1.77c0-0.64,0.1-1.22,0.29-1.75c0.19-0.53,0.47-0.99,0.82-1.38      c0.35-0.39,0.77-0.69,1.25-0.91c0.48-0.22,1.01-0.32,1.58-0.32c0.75,0,1.36,0.15,1.86,0.46c0.49,0.31,0.89,0.7,1.18,1.17      c0.3,0.48,0.5,0.99,0.62,1.56c0.11,0.56,0.16,1.1,0.14,1.6h-6.27c-0.01,0.37,0.03,0.72,0.13,1.05c0.1,0.33,0.25,0.62,0.47,0.88      c0.22,0.25,0.49,0.46,0.83,0.61c0.33,0.15,0.73,0.23,1.18,0.23c0.58,0,1.06-0.14,1.43-0.41c0.37-0.27,0.62-0.68,0.74-1.23h1.36      C152.7,69.41,152.29,70.12,151.67,70.59z M151.34,65.22c-0.12-0.29-0.29-0.54-0.5-0.75c-0.21-0.21-0.46-0.38-0.75-0.5      c-0.29-0.12-0.6-0.19-0.95-0.19c-0.36,0-0.68,0.06-0.96,0.19c-0.29,0.12-0.53,0.29-0.74,0.51c-0.2,0.22-0.37,0.47-0.49,0.75      c-0.12,0.29-0.19,0.59-0.21,0.92h4.81C151.53,65.82,151.46,65.51,151.34,65.22z"/>
			</g>
		</g>
		<g>
			<path class="st1" d="M157.5,66.55c0.4,0,0.79,0.1,1.17,0.31c0.38,0.21,0.68,0.5,0.89,0.88c0.21,0.38,0.32,0.78,0.32,1.2     c0,0.41-0.11,0.81-0.31,1.19c-0.21,0.38-0.5,0.67-0.88,0.88c-0.38,0.21-0.77,0.31-1.19,0.31c-0.41,0-0.81-0.11-1.19-0.31     c-0.38-0.21-0.67-0.5-0.88-0.88s-0.32-0.78-0.32-1.19c0-0.42,0.11-0.81,0.32-1.2c0.21-0.38,0.51-0.68,0.89-0.88     C156.7,66.65,157.09,66.55,157.5,66.55z M157.5,66.94c-0.34,0-0.66,0.09-0.98,0.26s-0.57,0.42-0.75,0.74     c-0.18,0.32-0.27,0.65-0.27,1c0,0.34,0.09,0.67,0.26,0.99c0.18,0.32,0.42,0.56,0.74,0.74c0.32,0.18,0.65,0.26,0.99,0.26     s0.67-0.09,0.99-0.26s0.56-0.42,0.74-0.74c0.17-0.32,0.26-0.64,0.26-0.99c0-0.35-0.09-0.68-0.27-1     c-0.18-0.32-0.43-0.57-0.75-0.74C158.15,67.03,157.83,66.94,157.5,66.94z M156.45,70.26v-2.57h0.88c0.3,0,0.52,0.02,0.66,0.07     c0.14,0.05,0.24,0.13,0.32,0.25c0.08,0.12,0.12,0.24,0.12,0.38c0,0.19-0.07,0.35-0.2,0.49c-0.13,0.14-0.31,0.22-0.53,0.23     c0.09,0.04,0.16,0.08,0.22,0.14c0.1,0.1,0.23,0.27,0.38,0.51l0.31,0.5h-0.51l-0.23-0.41c-0.18-0.32-0.32-0.52-0.43-0.6     c-0.08-0.06-0.19-0.09-0.33-0.09h-0.24v1.09H156.45z M156.86,68.81h0.5c0.24,0,0.4-0.04,0.49-0.11c0.09-0.07,0.13-0.17,0.13-0.28     c0-0.08-0.02-0.14-0.06-0.2s-0.1-0.11-0.18-0.13s-0.21-0.04-0.42-0.04h-0.47V68.81z"/>
		</g>
	</g>
</g>
<g id="Guides" class="st4">
	<path class="st5" d="M165.6-5.74c0-4.5-3.03-6.57-6.38-6.57c-3.35,0-6.38,2.06-6.38,6.57c0,4.5,3.03,6.57,6.38,6.57   C162.58,0.83,165.6-1.23,165.6-5.74L165.6-5.74z M162.23-5.74c0,1.6-0.47,3.8-3,3.8c-2.53,0-3-2.21-3-3.8c0-1.59,0.47-3.8,3-3.8   C161.76-9.54,162.23-7.33,162.23-5.74L162.23-5.74z"/>
</g>
</svg>
