<?xml version="1.0" encoding="UTF-8"?>
<svg xmlns="http://www.w3.org/2000/svg" id="Layer_1" data-name="Layer 1" viewBox="0 0 495 154.07" width="495" height="154">
  <title>nhs-inform-logo--white</title>
  <path d="M8.87,78.74A6.87,6.87,0,1,0,2,71.86a6.88,6.88,0,0,0,6.87,6.87" transform="translate(-2 -5)" style="fill:#fff"></path>
  <path d="M222.84,145.62h9.09V110.8c0-11.21,7.32-19.24,17-19.24s15.7,6.73,15.7,18.18v35.88h9.09V110.44c0-12,7.56-18.88,16.76-18.88,9.92,0,15.82,6.61,15.82,18.41v35.64h9.09V107.85c0-15.11-8.62-24.55-22.66-24.55-10.62,0-17.11,5.43-21.48,12.16-3.31-6.85-9.68-12.16-19.59-12.16-10.27,0-15.7,5.55-19.71,11.57V84.6h-9.09Zm-40.72,0h9.09V121.3c0-18.41,10.86-28,24.19-28h.71v-9.8c-11.57-.47-20.42,6.84-24.9,17V84.6h-9.09Zm-36.35-6.73c-12.87,0-22.54-10.62-22.54-23.72v-.24c0-12.86,9.09-23.6,22.31-23.6,12.86,0,22.66,10.74,22.66,23.84v.24c0,12.86-9.21,23.48-22.42,23.48m-.24,8.15a31.68,31.68,0,0,0,32-31.87v-.24a31.81,31.81,0,0,0-63.62.24v.24A31.26,31.26,0,0,0,145.54,147m-55.94-1.42h9.09v-53h19.24V84.83H98.56v-5c0-8.73,3.54-13,10.62-13A30.37,30.37,0,0,1,118,68.43V60.52A27.59,27.59,0,0,0,108,59c-5.55,0-10,1.65-13.1,4.72-3.42,3.42-5.31,8.73-5.31,15.7v5.31H81.21v7.91h8.38Zm-64.32,0h9.09V110.68c0-11.45,7.79-19.12,18.29-19.12,10.74,0,16.88,7.08,16.88,18.41v35.64h9.09V107.73C78.62,93.21,70,83.3,55.25,83.3c-10.5,0-16.88,5.31-20.89,11.92V84.6H25.27Zm-20.77,0h9.09v-61H4.5Z" transform="translate(-2 -5)" style="fill:#fff"></path>
  <path d="M174.54,72.2,159.9,50.37c-2.72-4.06-8-12.57-9.56-15.5.44,2.93.53,11.72.53,17.1V72.2H134.55V6h15L163.06,25.6c2.8,4.07,8.24,12.86,9.56,15.6-.44-2.93-.53-11.72-.53-17.11V6H188.4V72.2" transform="translate(-2 -5)" style="fill:#fff"></path>
  <rect width="495" height="154.07" style="fill:none"></rect>
  <polyline points="235.35 67.2 235.35 41.12 216.22 41.12 216.22 67.2 198.86 67.2 198.86 1.04 216.22 1.04 216.22 25.14 235.35 25.14 235.35 1.04 252.71 1.04 252.71 67.2" style="fill:#fff"></polyline>
  <path d="M290.67,73.24a46.42,46.42,0,0,1-25.88-8L273,50.84c4.47,3.31,12.28,6.61,18,6.61,6.05,0,8-1.13,8-4.25,0-2.46-2.19-4-10.44-6-14.82-3.69-21.92-8-21.92-21.27C266.64,13.41,276,5,290.85,5c10.44,0,18,2.75,24.47,7.66L307.07,27c-5.44-4-10.87-6.23-17.1-6.23-5.09,0-6.31,1.7-6.31,4.06s2.19,3.59,10.08,5.58C309.18,34.4,316,39.5,316,51.88c0,15.12-10.61,21.36-25.35,21.36" transform="translate(-2 -5)" style="fill:#fff"></path>
  <path d="M497,69.78c0-35.53-38.41-64.33-85.79-64.33s-85.79,28.8-85.79,64.33c0,23.48,16.79,44,41.86,55.25a6.51,6.51,0,0,0,.7.37l74.85,33.38s3.21,1.43,2.59-2l-4.78-26.52c32.89-9,56.37-32.67,56.37-60.44" transform="translate(-2 -5)" style="fill:#00a5b5"></path>
  <path d="M346.12,61c-.47-27,28.38-49.47,64.44-50.1s65.68,20.78,66.15,47.82c.31,17.87-12.2,33.73-31.12,42.61a4.3,4.3,0,0,1-.53.29l-56.53,26.4s-2.43,1.13-2-1.51l3.29-20.25C364.68,99.88,346.49,82.18,346.12,61" transform="translate(-2 -5)" style="fill:#fff"></path>
  <path d="M461.76,51.59c-.35-19.76-22-35.4-48.33-34.94S366,33.5,366.35,53.26c.23,13.06,9.76,24.32,23.81,30.32a3.92,3.92,0,0,0,.39.19L432.5,101.6s1.8.77,1.42-1.15L431,85.75c18.2-5.33,31-18.71,30.76-34.16" transform="translate(-2 -5)" style="fill:#aa7bc9"></path>
  <rect width="495" height="154.07" style="fill:none"></rect>
</svg>
